<svg width="170" height="28" viewBox="0 0 170 28" fill="none" xmlns="http://www.w3.org/2000/svg">
<path d="M26.2823 0C26.5418 0 26.7388 0.244464 26.6919 0.511313C26.5537 1.29729 26.3988 2.06069 26.2251 2.80152C25.9979 3.77289 25.7389 4.70672 25.456 5.60306C25.1491 6.57858 24.8064 7.51242 24.4398 8.4046C24.3282 8.67136 24.2166 8.93402 24.105 9.19248C23.7982 9.8887 23.4754 10.5599 23.1367 11.2061C22.6186 12.1941 22.0648 13.128 21.4829 14.0076C21.463 14.0368 21.4471 14.0618 21.4271 14.091C21.2182 14.4081 21.005 14.716 20.7874 15.0166C20.6567 15.197 20.4152 15.2393 20.2323 15.1185C19.7483 14.7988 19.2475 14.4817 18.7492 14.1786C18.6576 14.1202 18.5619 14.066 18.4703 14.0076C17.5857 13.474 16.7368 12.9862 16.0713 12.6194C15.9791 12.5675 15.8902 12.5182 15.8053 12.4713C15.5772 12.3454 15.512 12.037 15.6646 11.8197C15.8015 11.6245 15.9366 11.4262 16.0689 11.2224C16.0706 11.2199 16.0722 11.2178 16.0741 11.2156C16.0802 11.2085 16.0821 11.1977 16.0873 11.1898C16.6541 10.3219 17.1774 9.3963 17.6454 8.40038C17.9789 7.69267 18.2839 6.94991 18.5544 6.17203C18.652 5.89138 18.4504 5.59885 18.1648 5.59885H0.418421C0.187333 5.59885 0 5.403 0 5.16138V0.437501C0 0.195876 0.187333 0 0.418421 0H26.2823Z" fill="#FF6161"/>
<path d="M26.5426 27.4032C26.6592 27.6876 26.4571 28.0001 26.1612 28.0001H21.6425C21.5029 28.0001 21.3728 27.9272 21.294 27.8068C20.6759 26.8621 20.0164 25.9971 19.3255 25.2014C19.1341 24.9807 18.9387 24.76 18.7393 24.5518C18.0015 23.7605 17.2398 23.0483 16.4741 22.407C16.3386 22.2904 16.199 22.1779 16.0594 22.0697C15.6726 21.7573 15.2817 21.4658 14.8949 21.1868C14.3845 20.8245 13.878 20.4871 13.3795 20.1789C13.0565 19.9791 12.7375 19.7875 12.4184 19.6125C11.8282 19.2794 11.25 18.9795 10.6996 18.7171C10.2051 18.4798 9.72657 18.2674 9.27593 18.0841C8.82927 17.9009 8.40656 17.7385 8.01973 17.6011C6.94177 17.2148 6.11586 16.9967 5.68117 16.8934C5.48394 16.8466 5.33984 16.6644 5.33984 16.4529V11.6826C5.33984 11.4271 5.54754 11.2286 5.7898 11.262C6.24353 11.3245 7.01923 11.4522 8.01973 11.6957C8.79339 11.8831 9.70267 12.1412 10.6996 12.4911C11.5411 12.7868 12.4423 13.1449 13.3795 13.5864C13.5909 13.6863 13.8023 13.7863 14.0136 13.8946C14.0894 13.932 14.1612 13.9695 14.2369 14.007C14.8351 14.3152 15.4453 14.6525 16.0594 15.0273C16.9129 15.5479 17.7702 16.1393 18.6196 16.8056L18.7393 16.9014C18.851 16.9889 18.9626 17.0805 19.0743 17.1721C19.8719 17.8301 20.6615 18.5589 21.4192 19.3668C21.491 19.446 21.5667 19.5251 21.6385 19.6042C22.4122 20.4496 23.1579 21.3783 23.8598 22.4029C23.9396 22.5195 24.0193 22.6402 24.0991 22.7569C24.6016 23.5189 25.0801 24.331 25.5267 25.1973C25.8858 25.9007 26.2271 26.6332 26.5426 27.4032Z" fill="#FF6161"/>
<path d="M12.9431 22.4069C13.0264 22.4534 13.025 22.5745 12.946 22.6285C12.1962 23.1412 11.4503 23.604 10.7148 24.027C9.95748 24.4601 9.21604 24.8516 8.49453 25.1972C8.34306 25.2722 8.18761 25.343 8.03615 25.4138C7.0914 25.8552 6.19054 26.2218 5.35741 26.5299C4.3529 26.9006 3.44804 27.1838 2.67871 27.3962C1.68931 27.6727 0.925203 27.8344 0.470817 27.9198C0.221936 27.9666 0 27.7653 0 27.5009V22.7549C0 22.5493 0.13611 22.3708 0.326501 22.3193C0.757557 22.2029 1.59089 21.9581 2.67871 21.5448C3.45601 21.2491 4.36885 20.866 5.35741 20.3787C5.83577 20.1455 6.33003 19.8873 6.83627 19.6041C6.88967 19.5742 6.94218 19.5444 6.99459 19.5144C7.1038 19.4523 7.23388 19.4447 7.34858 19.4948C7.42624 19.5287 7.50815 19.5651 7.59366 19.6041C7.73316 19.6666 7.88065 19.7333 8.03615 19.804C8.80149 20.1497 9.76213 20.6037 10.7148 21.1076C11.5001 21.5198 12.2814 21.9655 12.9431 22.4069Z" fill="#FF6161"/>
<path d="M34 20.2406V7.85849H36.7983V9.67453C37.2684 8.42453 38.4325 7.59906 39.8877 7.59906C42.0144 7.59906 43.0442 9.17924 42.977 11.5377L40.4249 12.1981C40.4921 10.9245 40.1563 10.0755 39.0146 10.0755C37.7833 10.0755 36.7983 11.1368 36.7983 13.7075V20.2406H34Z" fill="#FF6161"/>
<path d="M55.6198 20.0047C55.1273 20.2642 54.5453 20.3821 53.9184 20.3821C52.5305 20.3821 51.5678 19.7689 51.2321 18.4953C50.4037 19.8868 49.1725 20.5 47.6278 20.5C45.5459 20.5 44.2698 19.1792 44.2698 17.2689C44.2698 15.5 45.1877 14.1557 48.1427 13.3302L51.0977 12.4811V12.4104C51.0977 10.9481 50.3814 10.1226 48.9262 10.1226C47.695 10.1226 46.8219 10.8066 46.3742 12.033L43.7997 11.3491C44.7623 8.75472 46.598 7.59906 49.1053 7.59906C52.0604 7.59906 53.8513 9.5566 53.8513 12.2925V17.0566C53.8513 17.7406 54.1423 18.0472 54.7244 18.0472C55.1049 18.0472 55.3512 17.9528 55.6198 17.8113V20.0047ZM46.9338 17.0802C46.9338 17.8113 47.4711 18.3066 48.3218 18.3066C49.3516 18.3066 50.3142 17.6462 51.0977 16.1132V14.6745L48.7471 15.3585C47.4263 15.7358 46.9338 16.2547 46.9338 17.0802Z" fill="#FF6161"/>
<path d="M57.3053 20.2406V3.25943H60.1036V11.7972L64.8495 7.85849H68.6776L64.4914 11.3726L68.6776 20.2406H65.5883L62.3199 13.2123L60.1036 15.0755V20.2406H57.3053Z" fill="#FF6161"/>
<path d="M70.0289 20.2406V3.25943H72.8272V9.69811C73.4093 8.54245 74.6629 7.59906 76.4986 7.59906C79.0507 7.59906 80.5506 9.34434 80.5506 12.2925V20.2406H77.7522V12.9292C77.7522 11.0425 77.0583 10.1226 75.5584 10.1226C74.0585 10.1226 72.8272 11.2783 72.8272 13.566V20.2406H70.0289Z" fill="#FF6161"/>
<path d="M94.0093 20.0047C93.5168 20.2642 92.9347 20.3821 92.3079 20.3821C90.9199 20.3821 89.9573 19.7689 89.6215 18.4953C88.7932 19.8868 87.5619 20.5 86.0173 20.5C83.9353 20.5 82.6593 19.1792 82.6593 17.2689C82.6593 15.5 83.5771 14.1557 86.5321 13.3302L89.4872 12.4811V12.4104C89.4872 10.9481 88.7708 10.1226 87.3157 10.1226C86.0844 10.1226 85.2113 10.8066 84.7636 12.033L82.1892 11.3491C83.1518 8.75472 84.9875 7.59906 87.4948 7.59906C90.4498 7.59906 92.2407 9.5566 92.2407 12.2925V17.0566C92.2407 17.7406 92.5317 18.0472 93.1138 18.0472C93.4944 18.0472 93.7406 17.9528 94.0093 17.8113V20.0047ZM85.3233 17.0802C85.3233 17.8113 85.8606 18.3066 86.7112 18.3066C87.741 18.3066 88.7036 17.6462 89.4872 16.1132V14.6745L87.1366 15.3585C85.8158 15.7358 85.3233 16.2547 85.3233 17.0802Z" fill="#FF6161"/>
<path d="M100.673 20.5C97.0687 20.5 94.7405 17.9764 94.7405 14.0613C94.7405 10.1226 97.0463 7.59906 100.651 7.59906C103.359 7.59906 105.396 8.91981 106.113 12.0802L103.449 12.7877C103.113 11.1368 102.128 10.217 100.651 10.217C98.7477 10.217 97.5388 11.6085 97.5388 14.0613C97.5388 16.4906 98.7477 17.8821 100.651 17.8821C102.262 17.8821 103.225 16.8915 103.516 15.1462L106.202 15.8538C105.643 18.8726 103.695 20.5 100.673 20.5Z" fill="#FF6161"/>
<path d="M107.894 20.2406V7.85849H110.692V20.2406H107.894ZM107.535 5.8066V3H111.028V5.8066H107.535Z" fill="#FF6161"/>
<path d="M113.227 20.2406V7.85849H116.026V9.65094C116.563 8.51887 117.705 7.59906 119.384 7.59906C121.085 7.59906 122.272 8.42453 122.764 9.98113C123.436 8.56604 124.667 7.59906 126.48 7.59906C128.808 7.59906 130.264 9.17924 130.264 12.2925V20.2406H127.465V12.8113C127.465 10.9953 126.838 10.1462 125.518 10.1462C124.286 10.1462 123.145 11.1604 123.145 13.3302V20.2406H120.346V12.8349C120.346 11.0189 119.72 10.1462 118.399 10.1462C117.167 10.1462 116.026 11.2075 116.026 13.4009V20.2406H113.227Z" fill="#FF6161"/>
<path d="M143.723 20.0047C143.231 20.2642 142.649 20.3821 142.022 20.3821C140.634 20.3821 139.671 19.7689 139.335 18.4953C138.507 19.8868 137.276 20.5 135.731 20.5C133.649 20.5 132.373 19.1792 132.373 17.2689C132.373 15.5 133.291 14.1557 136.246 13.3302L139.201 12.4811V12.4104C139.201 10.9481 138.485 10.1226 137.03 10.1226C135.798 10.1226 134.925 10.8066 134.478 12.033L131.903 11.3491C132.866 8.75472 134.701 7.59906 137.209 7.59906C140.164 7.59906 141.955 9.5566 141.955 12.2925V17.0566C141.955 17.7406 142.246 18.0472 142.828 18.0472C143.208 18.0472 143.455 17.9528 143.723 17.8113V20.0047ZM135.037 17.0802C135.037 17.8113 135.574 18.3066 136.425 18.3066C137.455 18.3066 138.418 17.6462 139.201 16.1132V14.6745L136.85 15.3585C135.53 15.7358 135.037 16.2547 135.037 17.0802Z" fill="#FF6161"/>
<path d="M145.342 20.2406V7.85849H148.141V9.69811C148.723 8.54245 149.977 7.59906 151.812 7.59906C154.364 7.59906 155.864 9.34434 155.864 12.2925V20.2406H153.066V12.9292C153.066 11.0425 152.372 10.1226 150.894 10.1226C149.372 10.1226 148.141 11.2783 148.141 13.566V20.2406H145.342Z" fill="#FF6161"/>
<path d="M163.702 20.5C160.142 20.5 157.725 17.9764 157.725 14.0613C157.725 10.1226 160.142 7.59906 163.702 7.59906C167.239 7.59906 169.657 10.1226 169.657 14.0613C169.657 17.9764 167.239 20.5 163.702 20.5ZM163.702 17.8821C165.627 17.8821 166.858 16.4906 166.858 14.0613C166.858 11.6085 165.627 10.217 163.702 10.217C161.754 10.217 160.523 11.6085 160.523 14.0613C160.523 16.4906 161.754 17.8821 163.702 17.8821Z" fill="#FF6161"/>
</svg>
